<?xml version="1.0" standalone="no"?>
<!DOCTYPE svg PUBLIC "-//W3C//DTD SVG 20010904//EN"
 "http://www.w3.org/TR/2001/REC-SVG-20010904/DTD/svg10.dtd">
<svg version="1.0" xmlns="http://www.w3.org/2000/svg"
 width="800.000000pt" height="800.000000pt" viewBox="0 0 800.000000 800.000000"
 preserveAspectRatio="xMidYMid meet">
<metadata>
Created by potrace 1.16, written by Peter Selinger 2001-2019
</metadata>
<g transform="translate(0.000000,800.000000) scale(0.100000,-0.100000)"
fill="#000000" stroke="none">
<path d="M3750 7993 c-19 -1 -87 -8 -150 -14 -222 -20 -644 -98 -725 -134 -16
-8 -106 -39 -200 -70 -93 -31 -206 -74 -250 -95 -241 -115 -342 -167 -458
-233 -71 -40 -132 -78 -135 -83 -4 -6 -59 -45 -122 -87 -124 -83 -270 -196
-341 -264 -24 -23 -60 -54 -79 -70 -39 -31 -191 -187 -297 -303 -78 -85 -160
-191 -250 -324 -34 -50 -83 -120 -108 -156 -25 -36 -53 -81 -63 -100 -17 -33
-60 -106 -109 -188 -12 -21 -36 -71 -54 -112 -17 -41 -53 -119 -79 -175 -26
-55 -73 -179 -105 -275 -31 -96 -61 -183 -66 -193 -28 -53 -104 -446 -129
-672 -17 -152 -32 -583 -25 -710 11 -199 56 -527 80 -580 7 -16 18 -57 25 -90
14 -74 38 -163 50 -190 5 -11 34 -94 63 -185 62 -186 87 -252 100 -261 5 -3 8
-9 8 -13 -1 -3 -1 -7 0 -8 0 -2 2 -13 3 -25 1 -12 14 -39 28 -60 14 -21 47
-84 73 -140 27 -57 52 -103 57 -103 4 0 8 -4 8 -10 0 -5 20 -43 44 -84 24 -41
47 -83 50 -94 4 -10 14 -27 24 -38 10 -10 53 -72 95 -136 184 -276 551 -669
797 -852 36 -27 72 -56 80 -65 8 -9 62 -48 120 -86 58 -38 114 -76 125 -86 11
-10 74 -48 140 -85 66 -36 122 -70 125 -74 6 -9 288 -140 300 -140 5 0 15 -6
22 -13 7 -7 42 -24 78 -36 36 -13 74 -30 86 -37 11 -7 74 -29 140 -50 65 -20
124 -40 129 -45 25 -19 338 -86 563 -121 113 -17 201 -21 501 -25 378 -5 480
0 726 38 169 26 444 87 471 104 11 7 61 26 110 40 118 36 338 116 344 125 3 4
74 38 158 75 84 37 163 76 175 85 12 9 76 47 142 84 66 37 122 71 125 75 3 5
57 43 120 85 125 83 228 163 330 255 36 33 81 72 100 88 77 63 317 320 420
449 64 80 180 242 180 251 0 3 18 29 39 57 21 28 53 78 71 111 18 33 48 83 66
111 19 28 60 107 92 175 33 68 76 158 95 200 20 42 62 152 92 245 30 93 60
177 66 187 24 43 94 375 123 582 37 266 48 659 25 920 -23 276 -106 722 -149
810 -6 11 -25 67 -44 125 -40 126 -106 303 -115 310 -8 6 -35 65 -72 152 -15
37 -56 115 -90 175 -34 59 -73 127 -85 150 -26 48 -56 96 -64 103 -4 3 -35 48
-69 100 -35 52 -98 139 -140 193 -98 126 -366 415 -456 492 -39 33 -86 75
-105 93 -59 55 -188 154 -299 229 -58 39 -113 78 -121 86 -8 8 -62 40 -120 72
-58 32 -118 68 -135 80 -16 11 -97 52 -180 90 -82 38 -152 72 -155 75 -7 9
-265 102 -360 130 -41 12 -80 26 -86 31 -22 18 -351 89 -553 119 -217 32 -670
50 -841 33z m1345 -1573 c210 -10 345 -22 533 -46 62 -8 120 -14 128 -14 12 0
14 -69 14 -490 l0 -490 -323 0 c-309 1 -357 -1 -402 -20 -11 -4 -40 -16 -65
-25 -109 -40 -234 -155 -292 -268 -18 -34 -32 -64 -33 -67 0 -3 -3 -9 -7 -15
-22 -34 -28 -163 -28 -562 l0 -433 554 0 555 0 -5 -37 c-3 -21 -12 -78 -19
-128 -8 -49 -24 -160 -35 -245 -12 -85 -24 -162 -27 -170 -3 -8 -5 -25 -4 -38
2 -13 -2 -28 -7 -35 -5 -7 -24 -119 -43 -249 l-33 -238 -468 0 -468 0 0 -962
c-1 -530 -1 -1127 0 -1328 l1 -365 -28 -12 c-21 -10 -164 -13 -605 -13 l-578
0 -10 26 c-6 16 -10 510 -10 1340 l0 1314 -505 0 -505 0 0 570 0 570 506 0
506 0 -3 603 c-3 664 -2 668 63 877 89 284 310 566 584 743 181 117 360 180
599 210 61 8 265 6 460 -3z"/>
</g>
</svg>
