<?xml version="1.0" standalone="no"?>
<!DOCTYPE svg PUBLIC "-//W3C//DTD SVG 20010904//EN"
 "http://www.w3.org/TR/2001/REC-SVG-20010904/DTD/svg10.dtd">
<svg version="1.0" xmlns="http://www.w3.org/2000/svg"
 width="1200.000000pt" height="1200.000000pt" viewBox="0 0 1200.000000 1200.000000"
 preserveAspectRatio="xMidYMid meet">
<metadata>
Created by potrace 1.16, written by Peter Selinger 2001-2019
</metadata>
<g transform="translate(0.000000,1200.000000) scale(0.100000,-0.100000)"
fill="#000000" stroke="none">
<path d="M5470 11664 c-124 -9 -432 -46 -566 -69 -521 -88 -1018 -249 -1499
-484 -525 -257 -973 -566 -1390 -960 -1015 -959 -1631 -2255 -1735 -3651 -13
-176 -13 -649 0 -821 91 -1182 533 -2272 1289 -3177 667 -799 1566 -1405 2561
-1727 301 -97 626 -172 930 -214 306 -42 378 -46 790 -46 412 0 484 4 790 46
813 112 1624 423 2320 889 1151 771 1979 1951 2310 3292 79 321 124 607 150
937 13 172 13 645 0 821 -87 1173 -534 2274 -1289 3178 -843 1009 -2041 1698
-3334 1917 -328 55 -476 67 -887 70 -212 1 -410 1 -440 -1z m920 -448 c682
-74 1281 -252 1864 -554 1241 -644 2193 -1797 2576 -3120 525 -1818 48 -3735
-1264 -5070 -427 -435 -871 -756 -1411 -1022 -568 -279 -1122 -438 -1770 -506
-239 -26 -771 -26 -1010 0 -502 53 -955 163 -1410 343 -187 74 -546 251 -725
358 -844 506 -1538 1252 -1974 2124 -728 1452 -728 3170 0 4622 484 967 1279
1772 2240 2271 646 335 1313 518 2084 572 126 9 662 -4 800 -18z"/>
<path d="M5315 10449 c-981 -50 -1744 -316 -2266 -790 -299 -272 -529 -658
-629 -1058 -43 -170 -60 -295 -67 -487 -8 -230 11 -308 94 -389 183 -178 509
-206 1448 -125 494 43 747 62 751 57 3 -3 -48 -19 -113 -37 -427 -116 -768
-221 -1178 -361 -331 -113 -813 -294 -844 -316 -48 -37 -66 -71 -66 -127 0
-42 6 -60 27 -88 38 -50 118 -88 184 -88 68 0 541 50 894 95 151 19 507 63
790 99 283 36 646 79 805 95 408 42 1048 90 1034 77 -5 -5 -56 -11 -514 -66
-836 -101 -1299 -178 -1735 -291 -254 -66 -348 -98 -386 -131 -62 -54 -69
-146 -17 -208 61 -73 157 -91 353 -66 640 81 1206 131 2735 241 939 68 1127
73 1771 50 264 -9 573 -17 685 -18 219 -2 236 1 297 57 72 65 69 175 -7 239
-55 46 -115 57 -320 57 -189 1 -900 26 -906 32 -2 2 35 14 82 27 66 19 94 32
123 60 91 87 69 218 -45 266 -17 7 -95 22 -175 34 -768 109 -1562 117 -2655
27 -98 -8 -223 -12 -294 -9 -118 6 -122 6 -85 19 59 19 203 51 364 79 80 14
197 37 260 50 487 101 734 138 1485 220 737 80 965 99 1461 124 141 7 179 12
220 30 102 46 132 100 115 209 -6 37 -18 114 -27 172 -48 317 -184 692 -349
960 -205 334 -496 624 -830 828 -370 226 -845 374 -1370 427 -317 32 -755 42
-1100 24z m-108 -428 c108 -50 93 -159 -35 -258 -87 -67 -243 -100 -327 -70
-44 15 -85 65 -85 104 0 56 74 148 152 189 102 54 222 68 295 35z m-1383 -371
c145 -55 37 -238 -166 -279 -143 -30 -234 58 -165 160 61 91 238 155 331 119z
m632 -399 c54 -25 74 -55 74 -111 0 -78 -68 -158 -180 -215 -163 -82 -335 -69
-384 29 -16 33 -17 43 -6 82 24 85 139 181 264 220 63 20 183 17 232 -5z"/>
<path d="M7475 6219 c-1344 -45 -2785 -169 -3675 -315 -546 -90 -887 -178
-1115 -289 -115 -56 -177 -106 -201 -162 -24 -56 -15 -195 15 -242 9 -15 35
-10 181 34 365 110 1014 247 1490 315 549 78 948 109 1545 117 804 11 1528
-44 2330 -178 189 -31 664 -125 799 -158 l79 -19 18 21 c32 39 89 160 105 226
18 74 15 194 -9 338 -34 202 -128 288 -345 313 -100 11 -863 11 -1217 -1z"/>
<path d="M5551 5429 c-69 -12 -102 -28 -117 -58 -18 -35 -4 -59 51 -89 28 -15
56 -39 63 -55 9 -19 15 -98 19 -255 6 -215 5 -230 -15 -274 -26 -59 -78 -95
-160 -110 -94 -18 -162 1 -222 61 -61 61 -67 90 -75 349 l-7 204 46 42 c63 57
64 111 3 143 -41 21 -209 29 -318 14 -131 -17 -187 -37 -208 -72 -14 -23 -20
-26 -24 -15 -3 8 -21 23 -39 33 -27 15 -55 18 -168 17 -206 -2 -319 -34 -346
-101 -14 -31 -13 -37 1 -59 9 -14 27 -30 41 -36 37 -17 55 -61 61 -148 7 -91
14 -86 -134 -102 -131 -14 -133 -13 -140 104 l-6 85 37 40 c50 56 49 111 -3
137 -43 22 -115 28 -203 16 -167 -22 -295 -74 -317 -129 -17 -40 -2 -65 53
-90 34 -14 46 -27 54 -52 18 -55 63 -385 69 -502 l6 -108 -37 -38 c-46 -48
-47 -92 -3 -125 26 -19 42 -21 155 -20 170 1 313 40 342 93 22 42 12 78 -31
112 -22 17 -45 43 -50 57 -14 36 -30 172 -24 193 7 22 50 36 145 47 117 14
119 13 127 -109 7 -92 -2 -144 -27 -169 -55 -55 -50 -112 14 -141 78 -35 343
-17 436 31 76 39 81 100 12 138 -24 14 -47 34 -52 46 -20 54 -58 569 -45 625
3 15 21 36 40 49 19 12 35 29 35 37 0 17 16 20 25 5 4 -6 24 -22 45 -35 51
-32 57 -57 65 -265 11 -275 31 -364 99 -438 84 -91 208 -141 371 -149 285 -15
520 97 576 275 7 23 14 150 18 327 l6 290 48 35 c54 40 62 73 25 107 -41 38
-190 53 -317 32z"/>
<path d="M6095 5436 c-5 -2 -36 -9 -68 -16 -132 -27 -162 -127 -45 -155 14 -4
35 -16 45 -27 16 -18 18 -47 21 -331 2 -238 0 -317 -10 -335 -7 -13 -34 -35
-60 -48 -45 -23 -53 -35 -48 -74 5 -43 17 -45 343 -51 223 -5 334 -11 390 -22
99 -21 116 -14 167 65 87 134 89 276 4 308 -40 16 -67 -2 -87 -58 -31 -89
-119 -141 -216 -128 -62 8 -89 29 -97 73 -11 58 3 578 16 602 6 12 27 29 48
39 79 37 63 109 -30 137 -49 15 -345 32 -373 21z"/>
<path d="M7006 5400 c-69 -12 -100 -38 -104 -85 -3 -34 1 -43 36 -75 38 -34
40 -39 47 -115 9 -97 -10 -437 -29 -518 -11 -46 -22 -66 -55 -96 -44 -41 -52
-71 -26 -108 20 -28 59 -40 170 -53 188 -21 309 -8 345 37 29 37 25 56 -20
108 -35 41 -40 52 -40 96 0 107 42 118 120 32 28 -32 79 -98 113 -147 108
-156 89 -144 262 -161 206 -21 246 -20 273 5 46 43 26 89 -69 161 -19 14 -95
108 -169 208 -189 255 -200 273 -200 300 0 27 72 104 150 160 40 29 49 31 127
31 76 0 86 2 108 25 33 32 31 60 -3 95 -33 32 -87 46 -245 62 -138 13 -221 1
-255 -38 -17 -20 -22 -34 -18 -53 21 -93 24 -84 -57 -166 -86 -88 -110 -95
-115 -30 -5 59 16 119 54 156 26 26 34 41 34 69 0 47 -23 69 -92 87 -65 17
-276 25 -342 13z"/>
<path d="M6173 4170 c-49 -11 -83 -37 -83 -63 0 -15 16 -38 45 -64 l45 -40 0
-205 c0 -237 8 -276 72 -340 169 -169 608 -170 746 -2 42 51 59 122 77 334 10
102 20 191 24 198 4 8 25 24 47 36 74 41 49 95 -53 116 -76 16 -232 17 -260 2
-13 -7 -28 -22 -34 -34 -10 -19 -8 -25 19 -47 17 -14 40 -33 53 -41 21 -15 22
-22 20 -149 -2 -164 -14 -264 -36 -297 -35 -54 -121 -83 -209 -70 -54 8 -102
39 -134 86 -24 35 -24 36 -18 220 6 187 16 230 50 230 21 0 48 36 44 61 -4 31
-44 57 -107 69 -62 11 -260 12 -308 0z"/>
<path d="M5450 4154 c-270 -58 -428 -295 -351 -526 87 -262 453 -384 731 -243
64 33 144 122 165 185 14 42 22 52 45 57 62 12 79 78 30 114 -72 53 -353 49
-437 -6 -31 -21 -44 -54 -30 -80 14 -28 27 -35 68 -35 20 0 42 -6 48 -14 19
-23 9 -67 -20 -89 -50 -37 -156 4 -214 83 -67 91 -89 249 -45 327 30 54 87 86
154 86 67 0 109 -19 174 -78 42 -38 62 -49 98 -53 56 -6 88 10 110 56 20 43
13 100 -22 159 -36 62 -74 79 -139 63 -39 -9 -64 -10 -104 -1 -69 15 -181 13
-261 -5z"/>
<path d="M7233 4100 c-12 -5 -25 -21 -29 -36 -7 -28 -7 -29 58 -75 22 -16 23
-22 22 -160 -1 -147 -13 -253 -40 -347 -14 -49 -19 -55 -60 -73 -35 -16 -44
-25 -44 -44 0 -40 34 -53 195 -70 249 -27 436 -55 493 -75 68 -24 88 -17 136
48 71 97 85 166 40 201 -15 12 -33 21 -41 21 -8 0 -39 -25 -69 -55 -30 -30
-66 -58 -80 -61 -38 -10 -216 1 -240 14 -12 6 -25 19 -28 28 -11 30 6 164 24
186 15 19 20 20 52 9 36 -12 54 -38 60 -90 4 -33 30 -48 65 -36 77 27 123 275
62 336 -40 40 -86 18 -109 -53 -11 -37 -13 -38 -58 -38 -72 0 -76 6 -69 96 4
44 14 88 23 102 15 24 20 24 88 19 139 -12 175 -31 239 -121 14 -20 26 -26 56
-26 47 0 62 16 68 74 7 62 -3 109 -32 140 -21 22 -32 26 -84 26 -33 0 -129 9
-213 19 -179 23 -432 51 -450 50 -7 0 -23 -4 -35 -9z"/>
<path d="M4595 4080 c-27 -4 -88 -18 -134 -30 -47 -12 -139 -27 -206 -35 -135
-15 -186 -31 -210 -68 -22 -34 -7 -61 41 -77 48 -16 58 -42 94 -253 38 -219
39 -275 4 -316 -32 -38 -30 -80 6 -98 36 -18 151 -16 255 6 115 24 140 34 161
66 15 23 15 27 0 50 -10 14 -28 30 -40 35 -30 11 -46 55 -53 148 l-6 72 42 0
c54 0 76 -24 120 -129 71 -172 159 -218 335 -177 129 31 174 116 80 152 -42
16 -45 19 -65 86 -26 88 -73 144 -137 161 -52 14 -63 32 -33 53 98 69 118 193
44 275 -57 63 -184 97 -298 79z m-26 -176 c11 -14 23 -46 27 -71 5 -36 3 -50
-13 -71 -24 -32 -89 -57 -108 -42 -18 15 -30 177 -14 196 6 8 29 14 49 14 29
0 43 -6 59 -26z"/>
<path d="M8151 3977 c-13 -6 -28 -22 -32 -35 -7 -19 -2 -29 26 -58 29 -29 35
-42 35 -77 0 -40 -51 -334 -70 -408 -12 -43 -46 -89 -65 -89 -21 0 -48 -46
-40 -69 15 -49 163 -99 315 -108 73 -4 99 -2 114 9 25 20 23 64 -4 93 -21 22
-22 31 -17 92 11 125 37 158 94 118 28 -20 40 -61 47 -166 12 -178 55 -229
222 -264 82 -17 135 -11 169 21 34 31 32 50 -10 87 l-35 31 0 88 c0 103 -10
130 -71 182 -47 40 -47 60 1 69 75 16 131 90 132 176 0 59 -18 96 -70 143 -72
65 -149 93 -300 108 -59 6 -164 25 -233 41 -140 32 -172 35 -208 16z m444
-202 c14 -13 25 -35 25 -48 0 -85 -37 -137 -97 -137 -64 0 -69 9 -54 82 21
103 35 128 71 128 19 0 40 -9 55 -25z"/>
<path d="M3863 3960 c-69 -10 -183 -46 -210 -65 -15 -10 -23 -26 -23 -44 0
-29 18 -41 82 -55 37 -8 44 -24 84 -194 42 -184 44 -248 8 -292 -37 -44 -98
-72 -169 -78 -83 -6 -148 26 -181 90 -21 40 -86 339 -80 364 3 12 17 29 31 38
33 21 34 68 3 90 -42 29 -169 14 -331 -40 -95 -32 -137 -64 -137 -105 0 -27 6
-33 53 -54 62 -27 68 -37 102 -183 45 -192 72 -260 124 -312 64 -64 132 -85
271 -85 242 1 469 120 516 270 20 64 16 111 -31 368 l-28 148 36 37 c40 41 47
76 19 91 -28 15 -83 20 -139 11z"/>
<path d="M9306 3695 c-125 -32 -206 -119 -206 -222 0 -45 42 -133 88 -184 25
-28 87 -78 137 -111 99 -65 115 -81 115 -114 0 -57 -131 -44 -218 23 -23 17
-47 53 -72 109 -31 66 -44 85 -64 90 -37 9 -55 -1 -71 -41 -32 -74 -12 -199
38 -241 48 -40 179 -102 278 -130 116 -33 243 -31 327 6 96 42 163 148 149
235 -14 87 -70 154 -192 231 -137 86 -172 134 -123 168 31 22 46 20 107 -10
41 -21 65 -44 107 -100 59 -80 77 -94 121 -94 66 0 94 66 68 157 -21 72 -69
123 -115 123 -18 0 -59 15 -94 35 -133 74 -266 99 -380 70z"/>
<path d="M2623 3635 c-29 -8 -125 -41 -215 -74 -90 -33 -203 -71 -251 -86 -94
-28 -127 -51 -127 -89 0 -30 15 -42 63 -51 52 -10 64 -32 131 -234 74 -226 85
-280 63 -326 -22 -45 -21 -58 1 -78 29 -26 65 -21 185 28 62 24 177 63 257 85
180 52 240 81 296 143 79 89 92 205 32 289 -23 34 -109 78 -150 78 -37 0 -43
15 -19 49 61 85 38 204 -48 255 -43 25 -150 30 -218 11z m-64 -170 c55 -28 85
-142 48 -183 -10 -11 -32 -26 -48 -33 -40 -16 -50 -5 -83 96 -32 98 -32 109
-3 123 31 15 53 14 86 -3z m149 -331 c31 -21 53 -68 55 -116 1 -34 -4 -45 -31
-69 -22 -20 -43 -29 -67 -29 -30 0 -37 5 -53 38 -29 57 -55 141 -48 158 13 33
106 45 144 18z"/>
</g>
</svg>
